<?xml version="1.0" encoding="utf-8"?>
<!-- Generator: Adobe Illustrator 17.1.0, SVG Export Plug-In . SVG Version: 6.00 Build 0)  -->
<!DOCTYPE svg PUBLIC "-//W3C//DTD SVG 1.1//EN" "http://www.w3.org/Graphics/SVG/1.1/DTD/svg11.dtd">
<svg version="1.1" id="Capa_1" xmlns="http://www.w3.org/2000/svg" xmlns:xlink="http://www.w3.org/1999/xlink" x="0px" y="0px"
	 viewBox="0 0 612 612" enable-background="new 0 0 612 612" xml:space="preserve">
<g>
	<g>
		<path fill="#FFFFFF" d="M612,306C612,137,475,0,306,0C137,0,0,137,0,306c0,169,137,306,306,306C475,612,612,475,612,306z
			 M27.8,306C27.8,152.4,152.4,27.8,306,27.8S584.2,152.4,584.2,306S459.6,584.2,306,584.2S27.8,459.6,27.8,306z"/>
		<path fill="#FFFFFF" d="M317.7,482.6V306H376l9.2-58.5h-67.5v-29.3c0-15.3,5-29.8,26.9-29.8h43.8v-58.4h-62.2
			c-52.3,0-66.6,34.4-66.6,82.2v35.4h-35.9V306h35.9v176.6H317.7L317.7,482.6z"/>
	</g>
</g>
</svg>
