<?xml version="1.0" encoding="utf-8"?>
<!-- Generator: Adobe Illustrator 17.1.0, SVG Export Plug-In . SVG Version: 6.00 Build 0)  -->
<!DOCTYPE svg PUBLIC "-//W3C//DTD SVG 1.1//EN" "http://www.w3.org/Graphics/SVG/1.1/DTD/svg11.dtd">
<svg version="1.1" id="Capa_1" xmlns="http://www.w3.org/2000/svg" xmlns:xlink="http://www.w3.org/1999/xlink" x="0px" y="0px"
	 viewBox="0 0 1224 792" enable-background="new 0 0 1224 792" xml:space="preserve">
<g>
	<g>
		<path fill="#FFFFFF" d="M612,0c218.6,0,396,177.4,396,396S830.6,792,612,792S216,614.6,216,396S393.4,0,612,0z M612,765.1
			c204.3,0,369.1-164.9,369.1-369.1S816.3,26.9,612,26.9S242.9,191.7,242.9,396S407.7,765.1,612,765.1z"/>
		<path fill="#FFFFFF" d="M662.2,256.2c3.6,0,7.2,1.8,9,3.6c5.4,5.4,5.4,14.3,0,19.7L549.3,401.4l121.8,121.8
			c5.4,5.4,5.4,14.3,0,19.7c-5.4,5.4-14.3,5.4-19.7,0L520.6,412.1c-5.4-5.4-5.4-14.3,0-19.7l130.8-130.8
			C655,258,658.6,256.2,662.2,256.2z"/>
	</g>
</g>
</svg>
